<svg xmlns="http://www.w3.org/2000/svg" viewBox="0 0 100 100" fill="currentColor">
  <!-- Solid, classical winding Chinese Dragon silhouette (生肖龙) -->
  <path d="M50,10 C45,10 38,15 35,21 C33,18 28,14 20,14 C12,14 8,20 10,28 C12,36 21,38 28,40 C28,45 25,52 18,52 C10,52 6,48 5,42 L0,45 C2,55 10,58 18,58 C28,58 35,50 35,42 C40,46 45,50 52,50 C62,50 70,44 72,36 C76,40 82,42 90,42 C98,42 100,34 98,26 C96,18 88,14 80,14 C73,14 68,18 65,22 C61,16 56,10 50,10 Z M28,26 A3,3 0 1,1 28,20 A3,3 0 1,1 28,26 Z M72,26 A3,3 0 1,1 72,20 A3,3 0 1,1 72,26 Z" />
</svg>
