<svg xmlns="http://www.w3.org/2000/svg" viewBox="0 0 100 100" fill="currentColor">
  <!-- Traditional Chinese Holiday Lantern (节日灯笼) - solid outline with bold vertical segments -->
  <path d="M50,4 L42,4 L42,12 C32,15 22,25 22,38 C22,51 32,61 42,64 L42,76 C35,78 30,82 30,86 L35,86 L35,96 L42,96 L42,86 L45,86 L45,96 L50,96 L50,86 L55,86 L55,96 L58,96 L58,86 L65,96 L70,96 L70,86 C70,82 65,78 58,76 L58,64 C68,61 78,51 78,38 C78,25 68,15 58,12 L58,4 L50,4 Z M32,38 C32,28 38,20 45,18 L45,58 C38,56 32,48 32,38 Z M68,38 C68,48 62,56 55,58 L55,18 C62,20 68,28 68,38 Z" fill-rule="evenodd" />
</svg>
