<svg xmlns="http://www.w3.org/2000/svg" viewBox="0 0 100 100" fill="currentColor">
  <!-- Stylized solid Leo Lion mane emblem (狮子座) -->
  <path d="M50,10 C28,10 10,28 10,50 C10,65 18,78 30,85 L30,75 C24,70 18,58 18,50 C18,32 32,18 50,18 C68,18 82,32 82,50 C82,58 76,70 70,75 L70,85 C82,78 90,65 90,50 C90,28 72,10 50,10 Z M50,30 C40,30 32,38 32,48 C32,58 40,66 50,66 C60,66 68,58 68,48 C68,38 60,30 50,30 Z M44,45 A4,4 0 1,1 44,40 A4,4 0 1,1 44,45 Z M56,45 A4,4 0 1,1 56,40 A4,4 0 1,1 56,45 Z" />
</svg>
