<svg xmlns="http://www.w3.org/2000/svg" viewBox="0 0 100 100" fill="currentColor">
  <!-- Simplified Chinese folk Tiger head or silhouette (生肖虎) - thick solid borders and bold features -->
  <path d="M50,8 C25,8 15,22 15,48 C15,74 30,88 50,88 C70,88 85,74 85,48 C85,22 75,8 50,8 Z M35,28 C38,28 40,30 40,33 C40,36 38,38 35,38 C32,38 30,36 30,33 C30,30 32,28 35,28 Z M65,28 C68,28 70,30 70,33 C70,36 68,38 65,38 C62,38 60,36 60,33 C60,30 62,28 65,28 Z M50,22 C55,22 58,24 58,26 C58,28 55,30 50,30 C45,30 42,28 42,26 C42,24 45,22 50,22 Z M50,46 C40,46 32,54 32,60 C40,60 50,56 50,46 Z M50,46 C60,46 68,54 68,60 C60,60 50,56 50,46 Z" />
</svg>
